<svg xmlns="http://www.w3.org/2000/svg" viewBox="0 12.210000038146973 589.1599731445312 30.270000457763672" data-asc="0.83984375" width="589.1599731445312" height="30.270000457763672"><defs/><g fill="#000000"><g transform="translate(0, 0)"><path d="M31.05 41.99Q31.05 40.87 30.37 40.72Q30.18 40.67 29.83 40.67L28.32 40.67L16.89 12.70L13.87 12.70L3.13 40.67L0 40.67L0 41.99L8.89 41.99Q8.89 40.87 8.20 40.72Q7.96 40.67 7.67 40.67L5.08 40.67L8.64 31.30L18.51 31.30L22.17 40.67L18.80 40.67L18.80 41.99L31.05 41.99M17.92 29.83L9.18 29.83L13.53 18.41L17.92 29.83ZM46.14 41.99L46.14 40.67L42.24 40.67L42.24 28.61L45.36 28.61L52.78 42.04L60.99 41.99Q60.99 40.92 60.35 40.77Q60.06 40.72 59.77 40.72L58.74 40.72L51.07 28.08Q56.05 26.76 57.42 22.80Q57.81 21.58 57.81 20.36Q57.81 16.70 54.59 14.50Q51.90 12.70 48.05 12.70L32.32 12.70L32.32 14.01L36.23 14.01L36.23 40.67L32.32 40.67L32.32 41.99L46.14 41.99M45.61 14.01Q49.56 14.01 50.93 17.68Q51.42 18.99 51.42 20.51Q51.42 24.41 48.93 26.22Q47.61 27.15 45.90 27.15L42.24 27.15L42.24 14.01L45.61 14.01ZM86.28 21.88L86.08 12.70L62.26 12.70L62.26 14.01L66.16 14.01L66.16 40.67L62.26 40.67L62.26 41.99L86.08 41.99L86.28 32.81L85.01 32.81L84.03 35.84Q82.76 39.65 80.22 40.43Q79.39 40.67 78.42 40.67L72.17 40.67L72.17 27.64L81.79 27.64L81.79 26.17L72.17 26.17L72.17 14.01L78.42 14.01Q82.18 14.01 83.74 17.92Q83.94 18.36 84.08 18.85L85.01 21.88L86.28 21.88ZM110.84 14.01L114.84 14.01L114.84 33.84L97.17 12.70L89.40 12.70L89.40 14.01L93.31 14.01L93.31 40.67L89.40 40.67L89.40 41.99L99.46 41.99Q99.17 40.77 98.14 40.67L95.31 40.67L95.31 19.63L114.26 42.24L116.85 41.75L116.85 14.01L120.75 14.01L120.75 12.70L110.84 12.70L110.84 14.01ZM152.15 41.99Q152.15 40.87 151.46 40.72Q151.27 40.67 150.93 40.67L149.41 40.67L137.99 12.70L134.96 12.70L124.22 40.67L121.09 40.67L121.09 41.99L129.98 41.99Q129.98 40.87 129.30 40.72Q129.05 40.67 128.76 40.67L126.17 40.67L129.74 31.30L139.60 31.30L143.26 40.67L139.89 40.67L139.89 41.99L152.15 41.99M139.01 29.83L130.27 29.83L134.62 18.41L139.01 29.83ZM186.43 33.98Q186.43 29.83 181.84 27.00Q181.15 26.61 176.56 24.37Q172.36 22.27 171.34 20.26Q170.80 19.19 170.80 18.07Q170.80 15.14 173.63 14.06Q174.76 13.62 176.03 13.62Q180.03 13.62 182.08 16.50Q183.45 18.46 183.45 21.14L185.21 21.14L185.21 12.40Q183.84 12.40 183.64 13.33Q183.59 13.67 183.59 14.11Q179.74 12.21 175.29 12.21Q169.63 12.21 166.65 15.23Q164.70 17.24 164.70 19.97Q164.70 24.07 169.29 26.86Q170.02 27.25 174.66 29.54Q178.96 31.64 179.98 33.69Q180.52 34.72 180.52 35.84Q180.52 39.26 177.34 40.53Q176.07 41.06 174.51 41.06Q168.70 41.06 166.85 35.35Q166.36 33.74 166.21 31.84L164.45 31.84L164.45 42.09Q165.67 42.09 165.92 41.36Q166.02 40.92 166.02 39.99Q169.82 42.48 174.95 42.48Q180.96 42.48 184.18 39.36Q186.43 37.16 186.43 33.98ZM213.87 21.88L213.67 12.70L189.84 12.70L189.84 14.01L193.75 14.01L193.75 40.67L189.84 40.67L189.84 41.99L213.67 41.99L213.87 32.81L212.60 32.81L211.62 35.84Q210.35 39.65 207.81 40.43Q206.98 40.67 206.01 40.67L199.76 40.67L199.76 27.64L209.38 27.64L209.38 26.17L199.76 26.17L199.76 14.01L206.01 14.01Q209.77 14.01 211.33 17.92Q211.52 18.36 211.67 18.85L212.60 21.88L213.87 21.88ZM242.82 39.99Q242.77 41.89 243.60 42.14Q243.95 42.24 244.48 42.24L244.48 32.76L243.02 32.76Q240.97 40.14 235.21 40.97Q234.38 41.06 233.54 41.06Q224.76 40.97 224.71 27.20Q224.71 16.50 230.66 14.16Q232.13 13.62 233.84 13.62Q239.36 13.62 241.80 19.04Q242.33 20.31 242.77 21.88L244.34 21.88L244.19 12.45Q242.97 12.45 242.72 13.28Q242.63 13.77 242.63 14.70Q238.57 12.21 233.25 12.21Q225.20 12.21 220.95 17.92Q217.92 22.02 217.92 27.29Q217.92 33.64 221.97 37.94Q226.27 42.48 233.25 42.48Q238.28 42.43 242.82 39.99ZM246.34 14.01L250.24 14.01L250.24 31.15Q250.34 42.43 262.30 42.48Q270.31 42.48 272.31 36.28Q273.05 33.89 273.05 30.57L273.05 14.01L276.95 14.01L276.95 12.70L267.38 12.70L267.38 14.01L271.29 14.01L271.29 30.86Q271.24 41.02 263.33 41.06Q257.81 41.06 256.59 35.25Q256.20 33.35 256.20 30.81L256.20 14.01L260.11 14.01L260.11 12.70L246.34 12.70L246.34 14.01ZM292.29 41.99L292.29 40.67L288.38 40.67L288.38 28.61L291.50 28.61L298.93 42.04L307.13 41.99Q307.13 40.92 306.49 40.77Q306.20 40.72 305.91 40.72L304.88 40.72L297.22 28.08Q302.20 26.76 303.56 22.80Q303.96 21.58 303.96 20.36Q303.96 16.70 300.73 14.50Q298.05 12.70 294.19 12.70L278.47 12.70L278.47 14.01L282.37 14.01L282.37 40.67L278.47 40.67L278.47 41.99L292.29 41.99M291.75 14.01Q295.70 14.01 297.07 17.68Q297.56 18.99 297.56 20.51Q297.56 24.41 295.07 26.22Q293.75 27.15 292.04 27.15L288.38 27.15L288.38 14.01L291.75 14.01ZM322.22 41.99Q321.92 40.77 320.90 40.67L318.31 40.67L318.31 14.01L322.22 14.01L322.22 12.70L308.40 12.70L308.40 14.01L312.30 14.01L312.30 40.67L308.40 40.67L308.40 41.99L322.22 41.99ZM344.78 41.99Q344.38 40.77 343.51 40.67L340.19 40.67L340.19 14.01L341.65 14.01Q345.21 14.01 346.73 17.63Q346.97 18.21 347.17 18.85L348.44 22.90L349.85 22.90L349.66 12.70L324.76 12.70L324.51 22.90L325.98 22.90L327.25 18.85Q328.42 15.04 331.01 14.26Q331.79 14.01 332.76 14.01L334.18 14.01L334.18 40.67L329.54 40.67L329.54 41.99L344.78 41.99ZM372.22 41.99Q371.92 40.77 370.90 40.67L368.12 40.67L368.12 29.44L375 15.38Q375.93 14.06 377.49 14.01Q378.71 13.72 378.81 12.70L370.17 12.70L370.17 14.01L374.07 14.01L367.24 27.78L359.86 14.01L363.57 14.01L363.57 12.70L350.78 12.70L350.78 14.01L353.22 14.01L362.16 29.83L362.16 40.67L358.06 40.67L358.06 41.99L372.22 41.99ZM413.09 33.98Q413.09 29.83 408.50 27.00Q407.81 26.61 403.22 24.37Q399.02 22.27 398.00 20.26Q397.46 19.19 397.46 18.07Q397.46 15.14 400.29 14.06Q401.42 13.62 402.69 13.62Q406.69 13.62 408.74 16.50Q410.11 18.46 410.11 21.14L411.87 21.14L411.87 12.40Q410.50 12.40 410.30 13.33Q410.25 13.67 410.25 14.11Q406.40 12.21 401.95 12.21Q396.29 12.21 393.31 15.23Q391.36 17.24 391.36 19.97Q391.36 24.07 395.95 26.86Q396.68 27.25 401.32 29.54Q405.62 31.64 406.64 33.69Q407.18 34.72 407.18 35.84Q407.18 39.26 404.00 40.53Q402.73 41.06 401.17 41.06Q395.36 41.06 393.51 35.35Q393.02 33.74 392.87 31.84L391.11 31.84L391.11 42.09Q392.33 42.09 392.58 41.36Q392.68 40.92 392.68 39.99Q396.48 42.48 401.61 42.48Q407.62 42.48 410.84 39.36Q413.09 37.16 413.09 33.98ZM436.52 41.99Q436.23 40.77 435.21 40.67L432.42 40.67L432.42 29.44L439.31 15.38Q440.23 14.06 441.80 14.01Q443.02 13.72 443.12 12.70L434.47 12.70L434.47 14.01L438.38 14.01L431.54 27.78L424.17 14.01L427.88 14.01L427.88 12.70L415.09 12.70L415.09 14.01L417.53 14.01L426.46 29.83L426.46 40.67L422.36 40.67L422.36 41.99L436.52 41.99ZM467.87 33.98Q467.87 29.83 463.28 27.00Q462.60 26.61 458.01 24.37Q453.81 22.27 452.78 20.26Q452.25 19.19 452.25 18.07Q452.25 15.14 455.08 14.06Q456.20 13.62 457.47 13.62Q461.47 13.62 463.53 16.50Q464.89 18.46 464.89 21.14L466.65 21.14L466.65 12.40Q465.28 12.40 465.09 13.33Q465.04 13.67 465.04 14.11Q461.18 12.21 456.74 12.21Q451.07 12.21 448.10 15.23Q446.14 17.24 446.14 19.97Q446.14 24.07 450.73 26.86Q451.46 27.25 456.10 29.54Q460.40 31.64 461.43 33.69Q461.96 34.72 461.96 35.84Q461.96 39.26 458.79 40.53Q457.52 41.06 455.96 41.06Q450.15 41.06 448.29 35.35Q447.80 33.74 447.66 31.84L445.90 31.84L445.90 42.09Q447.12 42.09 447.36 41.36Q447.46 40.92 447.46 39.99Q451.27 42.48 456.40 42.48Q462.40 42.48 465.63 39.36Q467.87 37.16 467.87 33.98ZM491.31 41.99Q490.92 40.77 490.04 40.67L486.72 40.67L486.72 14.01L488.18 14.01Q491.75 14.01 493.26 17.63Q493.51 18.21 493.70 18.85L494.97 22.90L496.39 22.90L496.19 12.70L471.29 12.70L471.04 22.90L472.51 22.90L473.78 18.85Q474.95 15.04 477.54 14.26Q478.32 14.01 479.30 14.01L480.71 14.01L480.71 40.67L476.07 40.67L476.07 41.99L491.31 41.99ZM522.75 21.88L522.56 12.70L498.73 12.70L498.73 14.01L502.64 14.01L502.64 40.67L498.73 40.67L498.73 41.99L522.56 41.99L522.75 32.81L521.48 32.81L520.51 35.84Q519.24 39.65 516.70 40.43Q515.87 40.67 514.89 40.67L508.64 40.67L508.64 27.64L518.26 27.64L518.26 26.17L508.64 26.17L508.64 14.01L514.89 14.01Q518.65 14.01 520.21 17.92Q520.41 18.36 520.56 18.85L521.48 21.88L522.75 21.88ZM563.57 12.70L553.96 12.70L544.63 34.67L534.03 12.70L525.83 12.70L525.83 14.01L529.74 14.01L529.74 40.67L525.83 40.67L525.83 41.99L535.69 41.99Q535.40 40.77 534.38 40.67L531.79 40.67L531.79 21.48L542.29 42.38L543.21 42.38L553.96 17.38L553.96 40.67L550.05 40.67L550.05 41.99L563.57 41.99Q563.28 40.77 562.26 40.67L559.67 40.67L559.67 14.01L563.57 14.01L563.57 12.70ZM589.16 33.98Q589.16 29.83 584.57 27.00Q583.89 26.61 579.30 24.37Q575.10 22.27 574.07 20.26Q573.54 19.19 573.54 18.07Q573.54 15.14 576.37 14.06Q577.49 13.62 578.76 13.62Q582.76 13.62 584.81 16.50Q586.18 18.46 586.18 21.14L587.94 21.14L587.94 12.40Q586.57 12.40 586.38 13.33Q586.33 13.67 586.33 14.11Q582.47 12.21 578.03 12.21Q572.36 12.21 569.38 15.23Q567.43 17.24 567.43 19.97Q567.43 24.07 572.02 26.86Q572.75 27.25 577.39 29.54Q581.69 31.64 582.71 33.69Q583.25 34.72 583.25 35.84Q583.25 39.26 580.08 40.53Q578.81 41.06 577.25 41.06Q571.44 41.06 569.58 35.35Q569.09 33.74 568.95 31.84L567.19 31.84L567.19 42.09Q568.41 42.09 568.65 41.36Q568.75 40.92 568.75 39.99Q572.56 42.48 577.69 42.48Q583.69 42.48 586.91 39.36Q589.16 37.16 589.16 33.98Z"/></g><g transform="translate(0, 66.9921875)"><path d=""/></g></g></svg>